<svg width="24" height="24" fill="none" xmlns="http://www.w3.org/2000/svg"><path d="M12 7.688a4.313 4.313 0 100 8.625 4.313 4.313 0 000-8.625zm0 7.5A3.187 3.187 0 1115.188 12 3.197 3.197 0 0112 15.188zm4.125-12.376h-8.25a5.063 5.063 0 00-5.063 5.063v8.25a5.062 5.062 0 005.063 5.063h8.25a5.062 5.062 0 005.063-5.063v-8.25a5.063 5.063 0 00-5.063-5.063zm3.938 13.313a3.937 3.937 0 01-3.938 3.938h-8.25a3.937 3.937 0 01-3.938-3.938v-8.25a3.937 3.937 0 013.938-3.938h8.25a3.937 3.937 0 013.938 3.938v8.25zm-2.25-9a.938.938 0 11-1.876 0 .938.938 0 011.876 0z" fill="#fff"/></svg>