<svg width="22" height="22" fill="none" xmlns="http://www.w3.org/2000/svg"><g fill="#fff"><path d="M1.146 9.625a8.48 8.48 0 1116.958 0 8.48 8.48 0 01-16.958 0zm8.48-7.104a7.104 7.104 0 100 14.208 7.104 7.104 0 000-14.208z"/><path d="M6.546 6.088a4.343 4.343 0 013.08-1.276c1.201 0 2.29.489 3.078 1.276a.687.687 0 11-.972.972 2.968 2.968 0 00-2.107-.873c-.823 0-1.567.333-2.106.873a.688.688 0 01-.973-.972zm8.194 8.652a.688.688 0 01.973 0l3.89 3.89a.688.688 0 01-.973.972l-3.89-3.89a.688.688 0 010-.971z"/></g></svg>