<svg width="24" height="24" fill="none" xmlns="http://www.w3.org/2000/svg"><path d="M21.562 3.122a1.322 1.322 0 00-1.34-.235L2.916 9.684a1.313 1.313 0 00.224 2.513l4.547.91v5.643A1.313 1.313 0 009 20.062a1.293 1.293 0 00.928-.384l2.56-2.56 3.824 3.366a1.284 1.284 0 001.266.263 1.294 1.294 0 00.872-.956l3.534-15.385a1.313 1.313 0 00-.422-1.284zm-18.347 7.8a.169.169 0 01.113-.188l14.484-5.69-9.693 7.003-4.753-.957a.169.169 0 01-.15-.168zm5.916 7.96a.179.179 0 01-.206.037.188.188 0 01-.113-.17v-4.865l2.822 2.494-2.503 2.503zm8.231.655a.188.188 0 01-.309.104L9.15 12.683l11.719-8.456-3.507 15.31z" fill="#fff"/></svg>