<svg width="24" height="24" fill="none" xmlns="http://www.w3.org/2000/svg"><path d="M23.015 6.534a.562.562 0 00-.515-.346h-2.963a4.312 4.312 0 00-3.73-2.25 4.35 4.35 0 00-4.37 4.312v.816c-3.975-.947-7.256-4.182-7.293-4.21a.562.562 0 00-.947.29c-.816 4.463.525 7.445 1.79 9.16a9.9 9.9 0 002.438 2.353c-1.453 1.763-3.844 2.682-3.872 2.691a.554.554 0 00-.337.356.544.544 0 00.065.478c.094.141 1.013 1.378 4.219 1.378 6.534 0 12-5.053 12.525-11.54l2.869-2.878a.535.535 0 00.122-.61zm-3.937 2.841a.543.543 0 00-.16.366c-.384 6-5.4 10.697-11.418 10.697-1.303 0-2.138-.226-2.634-.45 1.059-.535 2.793-1.585 3.853-3.179a.581.581 0 00.075-.45.572.572 0 00-.291-.365c-.019 0-1.425-.732-2.644-2.4-1.453-1.988-2.025-4.416-1.706-7.219 1.369 1.163 4.322 3.356 7.753 3.928a.553.553 0 00.656-.553v-1.5a3.215 3.215 0 013.225-3.187 3.206 3.206 0 012.888 1.912.553.553 0 00.515.338h1.95l-2.062 2.062z" fill="#fff"/></svg>